<svg xmlns="http://www.w3.org/2000/svg" viewBox="0 0 600 300" width="100%" height="100%">
  <defs>
    <style>
      .bg { fill: #ffffff; }
      .brand-blue { fill: #2c4284; }
      .brand-dark { fill: #231f20; }
      
      .text-en-main {
        font-family: 'Montserrat', system-ui, -apple-system, sans-serif;
        font-weight: 800;
        font-size: 22px;
      }
      .text-en-sub {
        font-family: 'Montserrat', system-ui, -apple-system, sans-serif;
        font-weight: 700;
        font-size: 12px;
        letter-spacing: 0.28em;
      }
      .text-ar {
        font-family: 'Segoe UI', Tahoma, Geneva, Verdana, sans-serif;
        font-size: 30px;
      }
      .text-en-bottom {
        font-family: Arial, Helvetica, sans-serif;
        font-weight: bold;
        font-size: 19px;
      }
    </style>
  </defs>

  <rect class="bg" width="100%" height="100%" />

  <g transform="translate(300, 75) scale(0.6)">
    <path class="brand-blue" d="
      M -10 -94.04
      L -34 -94.04
      A 100 100 0 0 0 -34 94.04
      L -24 94.04
      L -10 80.04
      L -10 12
      L -46 12
      L -46 38.52
      A 60 60 0 0 1 -10 -59.16
      Z
    "/>

    <path class="brand-blue" d="
      M 10 94.04
      L 34 94.04
      A 100 100 0 0 0 34 -94.04
      L 24 -94.04
      L 10 -80.04
      L 10 -12
      L 46 -12
      L 46 -38.52
      A 60 60 0 0 1 10 59.16
      Z
    "/>
  </g>

  <text x="300" y="160" class="brand-blue text-en-main" text-anchor="middle">Al Ghanim Global</text>
  <text x="302" y="185" class="brand-blue text-en-sub" text-anchor="middle">General Trading Co.</text>
  
  <text x="300" y="240" class="brand-dark text-ar" text-anchor="middle" direction="rtl">شركة الغانم جلوبال للتجاره العامه</text>
  <text x="300" y="275" class="brand-dark text-en-bottom" text-anchor="middle">Al Ghanim Global General Trading Co.</text>
</svg>