<svg xmlns="http://www.w3.org/2000/svg" viewBox="0 0 1200 350" width="100%" height="100%">
  <defs>
    <linearGradient id="sampleFlag" x1="0" y1="0" x2="0" y2="1">
      <stop offset="0%" stop-color="#ff9933"/>
      <stop offset="33%" stop-color="#ff9933"/>
      <stop offset="33%" stop-color="#ffffff"/>
      <stop offset="66%" stop-color="#ffffff"/>
      <stop offset="66%" stop-color="#138808"/>
      <stop offset="100%" stop-color="#138808"/>
    </linearGradient>

    <style>
      .text-dark { fill: #231f20; }
      .text-gray { fill: #4a4a4a; }
      .brand-blue { fill: #2a3f8c; }
      .brand-orange { fill: #f26522; }
      .brand-green { fill: #8dc63f; }
      .font-sans { font-family: 'Montserrat', 'Segoe UI', system-ui, sans-serif; }
      .font-serif { font-family: 'Georgia', 'Times New Roman', serif; }
      .font-impact { font-family: 'Impact', 'Arial Black', sans-serif; }
    </style>
  </defs>

  <rect width="100%" height="100%" fill="#ffffff" />

  <g class="font-sans">
    <text x="60" y="100" font-size="44" font-weight="400" class="text-gray">Product of India, Marketed by</text>
    <text x="60" y="155" font-size="52" font-weight="800" class="text-dark" letter-spacing="2">NEXUS DISTRIBUTION</text>

    <text x="100" y="220" font-size="22" font-weight="800" class="text-dark">REG. No. SAMPLE-0001</text>
    <text x="100" y="250" font-size="22" font-weight="800" class="text-dark">NEXUS DISTRIBUTION</text>

    <text x="390" y="220" font-size="22" font-weight="800" class="text-dark">LIC. No. SAMPLE-0002</text>
    <text x="390" y="250" font-size="22" font-weight="800" class="text-dark">NEXUS DISTRIBUTION</text>
  </g>

  <g transform="translate(790, 80)">
    <text x="0" y="0" class="font-impact brand-blue" font-size="70" font-weight="900" text-anchor="middle" letter-spacing="2">REGISTRY</text>
    <text x="0" y="22" class="font-sans brand-blue" font-size="11" font-weight="800" text-anchor="middle">PUBLIC REVIEW BADGE</text>
    <text x="0" y="38" class="font-sans brand-blue" font-size="10" font-weight="600" text-anchor="middle">Business metadata placeholder</text>
    <text x="0" y="80" class="font-sans text-dark" font-size="16" font-weight="800" text-anchor="middle">REG. No. SAMPLE-0001</text>
    <text x="0" y="100" class="font-sans text-dark" font-size="16" font-weight="800" text-anchor="middle">NEXUS DISTRIBUTION</text>
  </g>

  <g transform="translate(1020, 80)">
    <text x="-5" y="0" class="font-serif brand-blue" font-size="58" font-weight="bold" font-style="italic" text-anchor="middle">QUALITY</text>
    <path d="M -50 8 Q -5 38 45 8 Q -5 22 -50 8 Z" class="brand-orange" />
    <circle cx="45" cy="-42" r="6" class="brand-orange" />
    <path d="M 45 -52 C 50 -72, 70 -62, 55 -42 Z" class="brand-green" />
    <text x="0" y="80" class="font-sans text-dark" font-size="16" font-weight="800" text-anchor="middle">LIC. No. SAMPLE-0002</text>
    <text x="0" y="100" class="font-sans text-dark" font-size="16" font-weight="800" text-anchor="middle">NEXUS DISTRIBUTION</text>
  </g>

  <rect x="650" y="205" width="500" height="115" fill="#f4f4f4" rx="4" />

  <g transform="translate(670, 220)">
    <rect x="0" y="0" width="130" height="80" fill="url(#sampleFlag)" stroke="#666" stroke-width="1.5"/>
    <path d="M 25 50 L 30 35 L 45 35 Q 50 20 65 25 L 75 30 L 90 40 Q 100 30 105 45 Q 100 45 95 42 L 85 65 L 75 65 L 75 50 L 65 50 L 65 65 L 55 65 L 55 50 L 40 50 L 40 65 L 30 65 L 30 50 Z" class="text-dark" />
    <text x="65" y="75" font-family="Arial, sans-serif" font-size="11" font-weight="bold" fill="#ffffff" text-anchor="middle" letter-spacing="1">SOURCE SNAPSHOT</text>
  </g>

  <g transform="translate(850, 225)">
    <circle cx="20" cy="15" r="8" class="text-dark" />
    <path d="M 20 25 L 20 50 M 20 50 L 10 75 M 20 50 L 30 75 M 5 35 L 20 35 L 35 45" stroke="#231f20" stroke-width="5" fill="none" stroke-linecap="round" stroke-linejoin="round"/>
    <polygon points="50,45 75,45 70,80 55,80" fill="none" stroke="#231f20" stroke-width="4" stroke-linejoin="round"/>
    <line x1="45" y1="45" x2="80" y2="45" stroke="#231f20" stroke-width="4" stroke-linecap="round"/>
    <circle cx="42" cy="30" r="3" class="text-dark"/>
    <circle cx="48" cy="38" r="3" class="text-dark"/>
  </g>

  <g transform="translate(980, 225)">
    <circle cx="40" cy="30" r="22" fill="none" stroke="#231f20" stroke-width="3"/>
    <circle cx="100" cy="30" r="22" fill="none" stroke="#231f20" stroke-width="3"/>
    <path d="M 62 30 Q 70 20 78 30" fill="none" stroke="#231f20" stroke-width="3"/>
    <path d="M 18 30 Q 5 20 0 35" fill="none" stroke="#231f20" stroke-width="3"/>
    <path d="M 122 30 Q 135 20 140 35" fill="none" stroke="#231f20" stroke-width="3"/>
    <text x="40" y="35" class="font-sans text-dark" font-size="12" font-weight="bold" text-anchor="middle">CLEAN</text>
    <text x="100" y="35" class="font-sans text-dark" font-size="12" font-weight="bold" text-anchor="middle">SOURCE</text>
    <text x="70" y="70" class="font-sans text-dark" font-size="11" font-weight="bold" text-anchor="middle">Portfolio review asset</text>
  </g>
</svg>
