<svg xmlns="http://www.w3.org/2000/svg" viewBox="0 0 800 500" width="100%" height="100%">
  <defs>
    <style>
      .brand-grey { fill: #75787b; }
      .text-title {
        font-family: 'Montserrat', 'Segoe UI', system-ui, sans-serif;
        font-weight: 800;
        font-size: 34px;
      }
      .text-subtitle {
        font-family: 'Montserrat', 'Segoe UI', system-ui, sans-serif;
        font-weight: 700;
        font-size: 18px;
        letter-spacing: 0.28em;
      }
      .text-arabic {
        font-family: 'Segoe UI', Tahoma, Arial, sans-serif;
        font-size: 40px;
      }
      .text-bottom {
        font-family: 'Montserrat', Arial, Helvetica, sans-serif;
        font-weight: 700;
        font-size: 24px;
      }
    </style>
  </defs>

  <rect width="100%" height="100%" fill="#ffffff" />

  <g transform="translate(400, 140) scale(0.85)">
    <path class="brand-grey" d="
      M -10 -94.04
      L -34 -94.04
      A 100 100 0 0 0 -34 94.04
      L -24 94.04
      L -10 80.04
      L -10 12
      L -46 12
      L -46 38.52
      A 60 60 0 0 1 -10 -59.16
      Z
    "/>

    <path class="brand-grey" d="
      M 10 94.04
      L 34 94.04
      A 100 100 0 0 0 34 -94.04
      L 24 -94.04
      L 10 -80.04
      L 10 -12
      L 46 -12
      L 46 -38.52
      A 60 60 0 0 1 10 59.16
      Z
    "/>
  </g>

  <text x="400" y="280" class="brand-grey text-title" text-anchor="middle">Nexus Trading</text>
  <text x="403" y="315" class="brand-grey text-subtitle" text-anchor="middle">General Trading Co.</text>
  <text x="400" y="395" class="brand-grey text-arabic" text-anchor="middle" direction="rtl">شركة نكسس للتجارة العامة</text>
  <text x="400" y="440" class="brand-grey text-bottom" text-anchor="middle">Nexus Trading Co.</text>
</svg>
