<svg xmlns="http://www.w3.org/2000/svg" viewBox="0 0 800 500" width="100%" height="100%">
  <defs>
    <style>
      .bg { fill: #e3e4e6; }
      .logo-fill { fill: #13347b; }
      .text-primary {
        fill: #13347b;
        font-family: 'Montserrat', system-ui, -apple-system, sans-serif;
        font-weight: 800;
        font-size: 46px;
      }
      .text-secondary {
        fill: #13347b;
        font-family: 'Montserrat', system-ui, -apple-system, sans-serif;
        font-weight: 700;
        font-size: 24px;
        letter-spacing: 0.28em;
      }
    </style>
  </defs>

  <rect class="bg" width="100%" height="100%" />

  <g transform="translate(400, 175) scale(1.35)">
    <path class="logo-fill" d="
      M -10 -94.04
      L -34 -94.04
      A 100 100 0 0 0 -34 94.04
      L -24 94.04
      L -10 80.04
      L -10 12
      L -46 12
      L -46 38.52
      A 60 60 0 0 1 -10 -59.16
      Z
    "/>

    <path class="logo-fill" d="
      M 10 94.04
      L 34 94.04
      A 100 100 0 0 0 34 -94.04
      L 24 -94.04
      L 10 -80.04
      L 10 -12
      L 46 -12
      L 46 -38.52
      A 60 60 0 0 1 10 59.16
      Z
    "/>
  </g>

  <text x="400" y="382" class="text-primary" text-anchor="middle">Nexus Trading</text>
  <text x="403" y="428" class="text-secondary" text-anchor="middle">General Trading Co.</text>
</svg>
